# xmcd
#
# Track frame offsets:
#	183
#	11870
#	24283
#	37220
#	48083
#	60870
#	72583
#	83383
#	97808
#	110008
#	120395
#	133633
#	144920
#	157420
#	169298
#	182358
#	191808
#	204593
#
# Disc length: 2901 seconds
#
# Revision: 1
# Processed by: cddbd v1.5.1PL2 Copyright (c) Steve Scherf et al.
# Submitted via: EasyCDDAExtractor 6.0.0.1
#
DISCID=f10b5312
DTITLE=Freddy Fender - Country Music CM019
DYEAR=1999
DGENRE=Country
TTITLE0=Before The Next Teardrop Falls # 1 ('75)
TTITLE1=Wasted Days And Wasted Nights # 1 ('75)
TTITLE2=You'll Lose A Good Thing # 1 ('76)
TTITLE3=The Rains Came # 4 ('77)
TTITLE4=Almost Persuaded
TTITLE5=I'm Leaving It Up To You # 26 ('78)
TTITLE6=A Man Can Cry
TTITLE7=The Wild Side Of Life # 13 ('76)
TTITLE8=She's About A Mover
TTITLE9=Crazy Baby
TTITLE10=Girl Who Waits On Tables
TTITLE11=Mathilda
TTITLE12=Lovin' Cajun Style
TTITLE13=Sweet Summer Day
TTITLE14=Silver Wings
TTITLE15=Running Back
TTITLE16=Enter My Heart
TTITLE17=Going Out With The Tide
EXTD=
EXTT0=
EXTT1=
EXTT2=
EXTT3=
EXTT4=
EXTT5=
EXTT6=
EXTT7=
EXTT8=
EXTT9=
EXTT10=
EXTT11=
EXTT12=
EXTT13=
EXTT14=
EXTT15=
EXTT16=
EXTT17=
PLAYORDER=
